<svg width="115" height="43" viewBox="0 0 115 43" xmlns="http://www.w3.org/2000/svg"><title>Group</title><path d="M60.964 34.533h-2.16l-.01-23.496H46.167v2.3c0 7.171-.26 15.47-2.742 21.196H41.75v8.468h3.777v-5.043h11.658V43h3.778v-8.468l.001.001zM77.74 33.01c-1.08.75-2.969 1.82-5.343 1.82-3.346 0-5.073-3.211-5.073-9.311h11.333v-2.301c0-9.15-2.968-12.522-7.502-12.522-5.774 0-8.203 6.314-8.203 14.983 0 8.294 3.454 12.735 9.067 12.735 2.698 0 4.965-.856 6.692-2.193l-.971-3.211zM34.636 11.003v11.511h-6.26v-11.51h-4.21v26.969h4.21V25.807h6.26v12.166h4.156v-26.97h-4.156zm59.629 26.96h4.587l-7.717-14.288 6.746-12.682h-4.264l-6.53 12.468V10.993h-4.21v26.97h4.21V24.53l7.178 13.431v.002zm20.48-1.688l-.972-3.104c-.972.856-2.537 1.659-4.587 1.659-3.4 0-5.02-3.853-5.02-10.595 0-6.796 2.16-10.167 5.181-10.167 1.727 0 3.346.91 4.48 1.873l.594-3.96c-1.188-.749-2.591-1.391-5.02-1.391-6.368 0-9.66 5.404-9.66 13.859 0 9.204 3.508 13.86 9.337 13.86 2.482 0 4.21-.803 5.666-2.034h.001zm-60.048-1.647h-7.232C49.73 28.903 50 20.608 50 14.936v-.481h4.696v20.173h.001zm19.605-12.484H67.34c.27-4.816 1.187-7.973 3.777-7.973 2.429 0 3.185 3.371 3.185 7.973zm-59.461 1.563v14.288h4.156V.004H12.79C6.692.004 1.565 4.123 1.565 12.149c0 5.726 2.267 8.83 5.667 10.542L0 37.995h4.803l6.584-14.288h3.454zm-.013-3.333h-2.212c-3.616 0-6.585-1.98-6.585-8.134 0-6.367 3.238-8.64 6.585-8.64h2.212v16.774z" fill="#F00" fill-rule="evenodd"/></svg>