<?xml version="1.0" encoding="UTF-8"?>
<svg width="115px" height="43px" viewBox="0 0 115 43" version="1.1" xmlns="http://www.w3.org/2000/svg" xmlns:xlink="http://www.w3.org/1999/xlink">
    <!-- Generator: Sketch 40.1 (33804) - http://www.bohemiancoding.com/sketch -->
    <title>Group</title>
    <desc>Created with Sketch.</desc>
    <defs></defs>
    <g id="Page-1" stroke="none" stroke-width="1" fill="none" fill-rule="evenodd">
        <g id="xk8YidkhGjIGOrFm_dL5781YA" fill="#FF0000">
            <g id="Group">
                <path d="M60.964,34.533 L58.804,34.533 L58.794,11.037 L46.167,11.037 L46.167,13.337 C46.167,20.508 45.907,28.807 43.425,34.533 L41.75,34.533 L41.75,43.001 L45.527,43.001 L45.527,37.958 L57.185,37.958 L57.185,43 L60.963,43 L60.963,34.532 L60.964,34.533 Z M77.74,33.01 C76.66,33.76 74.771,34.83 72.397,34.83 C69.051,34.83 67.324,31.619 67.324,25.519 L78.657,25.519 L78.657,23.218 C78.657,14.068 75.689,10.696 71.155,10.696 C65.381,10.696 62.952,17.01 62.952,25.679 C62.952,33.973 66.406,38.414 72.019,38.414 C74.717,38.414 76.984,37.558 78.711,36.221 L77.74,33.01 L77.74,33.01 Z M34.636,11.003 L34.636,22.514 L28.376,22.514 L28.376,11.004 L24.166,11.004 L24.166,37.973 L28.376,37.973 L28.376,25.807 L34.636,25.807 L34.636,37.973 L38.792,37.973 L38.792,11.003 L34.636,11.003 L34.636,11.003 Z M94.265,37.963 L98.852,37.963 L91.135,23.675 L97.881,10.993 L93.617,10.993 L87.087,23.461 L87.087,10.993 L82.877,10.993 L82.877,37.963 L87.087,37.963 L87.087,24.53 L94.265,37.961 L94.265,37.963 Z M114.745,36.275 L113.773,33.171 C112.801,34.027 111.236,34.83 109.186,34.83 C105.786,34.83 104.166,30.977 104.166,24.235 C104.166,17.439 106.326,14.068 109.347,14.068 C111.074,14.068 112.693,14.978 113.827,15.941 L114.421,11.981 C113.233,11.232 111.83,10.59 109.401,10.59 C103.033,10.59 99.741,15.994 99.741,24.449 C99.741,33.653 103.249,38.309 109.078,38.309 C111.56,38.309 113.288,37.506 114.744,36.275 L114.745,36.275 Z M54.697,34.628 L47.465,34.628 C49.73,28.903 50,20.608 50,14.936 L50,14.455 L54.696,14.455 L54.696,34.628 L54.697,34.628 Z M74.302,22.144 L67.34,22.144 C67.61,17.328 68.527,14.171 71.117,14.171 C73.546,14.171 74.302,17.542 74.302,22.144 L74.302,22.144 Z" id="Shape"></path>
                <path d="M14.841,23.707 L14.841,37.995 L18.997,37.995 L18.997,0.004 L12.79,0.004 C6.692,0.004 1.565,4.123 1.565,12.149 C1.565,17.875 3.832,20.979 7.232,22.691 L0,37.995 L4.803,37.995 L11.387,23.707 L14.841,23.707 L14.841,23.707 Z M14.828,20.374 L12.616,20.374 C9,20.374 6.031,18.394 6.031,12.24 C6.031,5.873 9.269,3.6 12.616,3.6 L14.828,3.6 L14.828,20.374 L14.828,20.374 Z" id="Shape"></path>
            </g>
        </g>
    </g>
</svg>